<svg xmlns="http://www.w3.org/2000/svg" viewBox="0 0 110.3 103.1"><path fill="#AAC67C" d="M0 0h110.3v103.1H0z"/><path fill="#77A33B" d="M36.2 12.7c-15.7 6.1-25.4 7.5-25.4 7.5S7.2 45.7 16 65.3c12.6 27.9 37 34.6 38.8 35v-97c-1.5 1.3-6 4.5-18.6 9.4z"/><path fill="#4A9C40" d="M99.4 20.2s-9.7-1.3-25.4-7.5C60.4 7.4 56.2 4 55.1 3l-.3.3v97h.2s.1 0 .2-.1c.1 0 .2.1.2.1s25.8-6.1 38.9-35.1c8.8-19.6 5.2-45 5.1-45z"/><path fill="#276E38" d="M55.1 13.1c4 2.3 9.2 4.7 15.7 7.2 8.6 3.4 15.5 5.4 20.4 6.6.4 8 .2 22.6-5 34.3-9 20-24.6 27.3-30.7 29.5l-.4-.1-.3.2c-6.2-2.2-21.7-9.5-30.7-29.5C18.8 49.6 18.6 35 19 27c4.9-1.3 11.8-3.3 20.4-6.7 6.5-2.5 11.8-4.9 15.7-7.2m0-4.7c-3 2-8.3 4.7-17.2 8.2-10.5 4.1-18.4 6.2-22.7 7.1-.6 7.3-1.2 25 5.2 39.2C30.8 86.1 49.7 93.4 54.8 95l.3-.1.3.1c5.1-1.6 24-8.9 34.4-32.1 6.5-14.2 5.9-32 5.3-39.2-4.3-.9-12.3-3-22.8-7.1-8.9-3.5-14.1-6.2-17.2-8.2z"/><path fill="#FFF" d="M68.4 48.6h-2.3V36.9c0-6.1-4.9-11-11-11s-11 4.9-11 11v11.7h-2.3c-.9 0-1.6.7-1.6 1.6v25h29.6V50.1c.2-.8-.6-1.5-1.4-1.5zM49.6 36.9c0-3 2.4-5.5 5.5-5.5 3 0 5.5 2.4 5.5 5.5v11.7H49.7l-.1-11.7z"/></svg>